<svg width="28" height="28" viewBox="0 0 28 28" fill="none" xmlns="http://www.w3.org/2000/svg">
<rect width="28" height="28" rx="14" fill="black"/>
<path d="M15.3586 9.28906L15.2301 9.41759L8.46967 16.178L8.25 16.3977V16.7083V19V19.75H9H11.2917H11.6023L11.822 19.5303L18.5824 12.7699L18.7109 12.6414L19.1127 12.2396L19.2413 12.1111L20.3585 10.9939C20.6229 10.7294 20.75 10.3913 20.75 10.0339C20.75 9.67646 20.6229 9.33827 20.3585 9.07384L18.9262 7.64154C18.6617 7.37712 18.3235 7.25 17.9661 7.25C17.6087 7.25 17.2706 7.37712 17.0061 7.64154L15.8889 8.75873L15.7604 8.88726L15.3586 9.28906Z" stroke="white" stroke-width="1.5"/>
</svg>
